<svg xmlns="http://www.w3.org/2000/svg" height="1024" version="1.1" width="1024"><rect id="backgroundrect" width="100%" height="100%" x="0" y="0" fill="none" stroke="none"/><g class="currentLayer" style=""><title>Layer 1</title><path d="M518.8981002876185,554.4284560719673 c-109.97376519824935,0 -199.44538136107874,-90.5796180229926 -199.44538136107874,-201.91528034163213 c0,-111.338259056885 89.47161616282939,-201.91701178241016 199.44538136107874,-201.91701178241016 c109.97804043345928,0 199.44880188344527,90.5796180229926 199.44880188344527,201.91701178241016 C718.3469013355674,463.8488380489747 628.8761398855813,554.4284560719673 518.8981002876185,554.4284560719673 zM518.8981002876185,198.26149278999918 c-84.01520623611927,0 -152.36311164615725,69.19604613210988 -152.36311164615725,154.251682940336 c0,85.05390621329117 68.347905410038,154.24995149955797 152.36311164615725,154.24995149955797 s152.36653216852378,-69.19604613210988 152.36653216852378,-154.24995149955797 C671.2646316206458,267.45753892210905 602.9133065237378,198.26149278999918 518.8981002876185,198.26149278999918 zM183.04845124220117,908.7855410098862 c-13.00065356837368,0 -23.541562213882447,-10.671445534054278 -23.541562213882447,-23.833097069770815 c0,-204.71362443860912 164.5087967092066,-371.2605373217425 366.7165824088307,-371.2605373217425 c67.04151317296791,0 132.63812968890716,18.491748600440502 189.7013040376134,53.47234691301107 c11.123142710629464,6.8171230272960655 14.678957013355257,21.47272459701061 7.946933702398777,32.73101774936962 c-6.739718233036518,11.256561711580991 -21.219467833629132,14.860738816049578 -32.33064038696861,8.041019896351099 c-49.71129874606514,-30.47191553065419 -106.8745037398262,-46.579055716657635 -165.31759735304357,-46.579055716657635 c-176.24495150228404,0 -319.6343126939091,145.16334014640762 -319.6343126939091,323.59434233635784 C206.59001429158008,898.1140954758318 196.04910481057485,908.7855410098862 183.04845124220117,908.7855410098862 zM816.1330880089935,884.8987794261138 L636.251954967306,884.8987794261138 c-40.189511930609704,0 -72.88436943890619,-33.09974443011188 -72.88436943890619,-73.78695754872822 L563.3675855283998,711.0924454041302 c0,-40.687212272773266 32.694856672800064,-73.78868814366317 72.88436943890619,-73.78868814366317 l179.8811338771839,0 c40.189511930609704,0 72.8877891257763,33.1014758708899 72.8877891257763,73.78868814366317 l0,100.01851117578792 C889.0208771347698,851.7990349960019 856.3226007750995,884.8987794261138 816.1330880089935,884.8987794261138 zM636.251954967306,684.9690852566981 c-14.226678568766117,0 -25.802099723984718,11.71876927747464 -25.802099723984718,26.123359301589012 l0,100.01851117578792 c0,14.402859429179431 11.575421155218601,26.12162870665407 25.802099723984718,26.12162870665407 l179.8811338771839,0 c14.230098255636216,0 25.805519410854817,-11.71876927747464 25.805519410854817,-26.12162870665407 L841.9386074198483,711.0924454041302 c0,-14.404590869957449 -11.575421155218601,-26.123359301589012 -25.805519410854817,-26.123359301589012 L636.251954967306,684.9690852566981 zM780.4689254983019,751.1711717010104 L666.6862741300038,751.1711717010104 c-13.00065356837368,0 -23.541562213882447,-10.671445534054278 -23.541562213882447,-23.833097069770815 c0,-13.161651535716533 10.540908645508766,-23.833097069770815 23.541562213882447,-23.833097069770815 l113.78265053280164,0 c13.00065356837368,0 23.541562213882447,10.671445534054278 23.541562213882447,23.833097069770815 C804.0096321638445,740.4997261669561 793.4687235183357,751.1711717010104 780.4689254983019,751.1711717010104 zM733.3858002350405,823.9938985926447 l-66.70038081788016,0 c-13.00065356837368,0 -23.541562213882447,-10.671445534054278 -23.541562213882447,-23.833097069770815 s10.540908645508766,-23.833097069770815 23.541562213882447,-23.833097069770815 l66.70038081788016,0 c13.00065356837368,0 23.541562213882447,10.671445534054278 23.541562213882447,23.833097069770815 S746.3864538034142,823.9938985926447 733.3858002350405,823.9938985926447 z" id="svg_1" class="selected" stroke="#dadada" stroke-opacity="1" fill="#ffffff" fill-opacity="1"/></g></svg>